<?xml version="1.0" encoding="utf-8"?>
<!-- Generator: Adobe Illustrator 28.3.0, SVG Export Plug-In . SVG Version: 6.00 Build 0)  -->
<svg version="1.1" id="Layer_1" xmlns="http://www.w3.org/2000/svg" xmlns:xlink="http://www.w3.org/1999/xlink" x="0px" y="0px"
	 viewBox="0 0 212.61 32.35" style="enable-background:new 0 0 212.61 32.35;" xml:space="preserve">
<style type="text/css">
	.st0{fill:#142B12;}
	.st1{fill:#FDFDFD;}
	.st2{fill:#1F2123;}
	.st3{fill:#BCBF46;}
	.st4{fill:#E9E3DB;}
	.st5{fill:none;stroke:#000000;stroke-width:0.75;stroke-miterlimit:10;}
	.st6{fill:#FFFFFF;}
	.st7{fill:#1F2123;stroke:#FFFFFF;stroke-width:4;stroke-miterlimit:10;}
	.st8{fill:none;stroke:#1F2123;stroke-width:8;stroke-miterlimit:10;}
	.st9{fill:none;stroke:#1F2123;stroke-width:30;stroke-miterlimit:10;}
	.st10{fill:none;stroke:#0B331D;stroke-width:21;stroke-miterlimit:10;}
	.st11{fill:#33A344;stroke:#0B331D;stroke-width:21;stroke-miterlimit:10;}
	.st12{fill:none;stroke:#1F2123;stroke-width:9;stroke-miterlimit:10;}
	.st13{fill:none;stroke:#BCBF46;stroke-width:5;stroke-miterlimit:10;}
	.st14{fill:#40A629;}
	.st15{fill:#BABF26;}
	.st16{fill:#BBB323;}
</style>
<g>
	<g>
		<path class="st0" d="M42.72,21.03h3.71c0.51,5.11,3.63,7.77,9.33,7.77c4.18,0,7.18-1.9,7.18-5.66c0-4.14-3.63-5.11-9.03-6.29
			c-5.32-1.18-9.88-2.7-9.88-8.4c0-4.98,4.14-7.98,10.26-7.98c7.55,0,10.68,3.84,11.44,9.41h-3.59c-0.55-4.31-3.33-6.46-7.77-6.46
			c-4.09,0-6.79,1.73-6.79,4.85c0,3.42,3.38,4.43,7.89,5.32c5.87,1.18,11.23,2.62,11.23,9.41c0,5.66-4.6,8.82-11.1,8.82
			C47.11,31.83,43.06,27.11,42.72,21.03z"/>
		<path class="st0" d="M69.05,20.35c0-6.33,4.14-11.48,10.34-11.48c6.54,0,10.04,5.06,10.04,12.28H72.55
			c0.25,4.43,2.66,7.81,7.05,7.81c3.17,0,5.28-1.52,6.04-4.47h3.33c-1.01,4.69-4.43,7.34-9.37,7.34
			C72.93,31.83,69.05,26.69,69.05,20.35z M72.64,18.58h13.13c-0.21-4.35-2.45-7.01-6.37-7.01C75.34,11.58,73.14,14.61,72.64,18.58z"
			/>
		<path class="st0" d="M91.67,20.35c0-6.33,4.14-11.48,10.34-11.48c6.54,0,10.04,5.06,10.04,12.28H95.17
			c0.25,4.43,2.66,7.81,7.05,7.81c3.17,0,5.28-1.52,6.04-4.47h3.33c-1.01,4.69-4.43,7.34-9.37,7.34
			C95.55,31.83,91.67,26.69,91.67,20.35z M95.26,18.58h13.13c-0.21-4.35-2.45-7.01-6.37-7.01C97.96,11.58,95.76,14.61,95.26,18.58z"
			/>
		<path class="st16" d="M111.92,1.07h3.97l4.77,19.63c0.51,2.03,1.14,5.11,1.14,5.11h0.08c0,0,0.72-3.21,1.27-5.19l5.44-19.54h4.09
			l5.28,19.54c0.55,2.03,1.22,5.19,1.22,5.19h0.08c0,0,0.72-3.25,1.18-5.11l5.02-19.63h3.84l-8.4,30.18h-3.63l-5.53-21.27
			c-0.46-1.77-1.1-4.6-1.1-4.6h-0.08c0,0-0.63,2.83-1.14,4.6l-5.91,21.27h-3.8L111.92,1.07z"/>
		<path class="st16" d="M147.49,20.35c0-6.33,4.14-11.48,10.34-11.48c6.54,0,10.04,5.06,10.04,12.28H151
			c0.25,4.43,2.66,7.81,7.05,7.81c3.17,0,5.28-1.52,6.04-4.47h3.33c-1.01,4.69-4.43,7.34-9.37,7.34
			C151.38,31.83,147.49,26.69,147.49,20.35z M151.08,18.58h13.13c-0.21-4.35-2.45-7.01-6.37-7.01
			C153.78,11.58,151.59,14.61,151.08,18.58z"/>
		<path class="st16" d="M170.07,20.35c0-6.33,4.14-11.48,10.34-11.48c6.54,0,10.04,5.06,10.04,12.28h-16.88
			c0.25,4.43,2.66,7.81,7.05,7.81c3.17,0,5.28-1.52,6.04-4.47h3.33c-1.01,4.69-4.43,7.34-9.37,7.34
			C173.95,31.83,170.07,26.69,170.07,20.35z M173.66,18.58h13.13c-0.21-4.35-2.45-7.01-6.37-7.01
			C176.36,11.58,174.17,14.61,173.66,18.58z"/>
		<path class="st16" d="M192.69,20.4c0-7.26,4.18-11.48,9.58-11.48c3.08,0,5.45,1.52,6.84,3.59h0.08V1.07h3.42v30.18h-3.42v-2.66
			h-0.08c-1.65,2.11-3.67,3.29-6.75,3.29C196.41,31.88,192.69,27.4,192.69,20.4z M209.4,20.44c0-5.06-2.45-8.61-6.96-8.61
			c-4.14,0-6.25,3.71-6.25,8.61c0,4.94,2.11,8.57,6.29,8.57C207.34,29.01,209.4,25.38,209.4,20.44z"/>
	</g>
	<g>
		<g>
			<path class="st16" d="M28.26,8.9V4.09h-20c-2.3,0-4.17,1.87-4.17,4.18v5.33l5.95-3.6c3.79-2.28,8.49-2.28,12.28,0l5.13,3.1
				l4.91,2.96v8.04c0,4.56-3.71,8.26-8.26,8.26H0.78C0.35,32.35,0,32.01,0,31.58V21.01c0-0.01,0-0.02,0.02-0.03c0,0,0.01,0,0.02,0
				c0,0,0.01,0,0.01,0l4.03,2.43c0.01,0,0.02,0.02,0.02,0.02v4.83h20c2.3,0,4.17-1.87,4.17-4.17v-5.76L20.2,13.5
				c-2.49-1.49-5.58-1.49-8.07,0.01l-4.42,2.67l4.44,2.68c2.49,1.5,5.57,1.5,8.05,0l0.5-0.3c0.03-0.02,0.08-0.04,0.12-0.05
				c0.03,0.01,0.06,0.03,0.09,0.04l3.82,2.31c0.01,0,0.02,0.01,0.02,0.03c0,0.02-0.01,0.02-0.02,0.03l-2.41,1.46
				c-1.87,1.12-3.99,1.71-6.14,1.71c-2.16,0-4.28-0.59-6.14-1.71l-3.12-1.88l0.01-0.02L0,16.29V8.27C0,3.71,3.71,0,8.26,0h23.31
				c0.43,0,0.78,0.35,0.78,0.78v10.55c0,0.01,0,0.02-0.01,0.03c-0.02,0.01-0.02,0-0.03,0l-4.03-2.43
				C28.27,8.92,28.26,8.91,28.26,8.9z"/>
		</g>
	</g>
</g>
</svg>
