<?xml version="1.0" encoding="UTF-8"?><svg id="Layer_1" xmlns="http://www.w3.org/2000/svg" viewBox="0 0 212.61 32.35"><defs><style>.cls-1{fill:#bbb323;}.cls-1,.cls-2{stroke-width:0px;}.cls-2{fill:#e9e3db;}</style></defs><path class="cls-2" d="M42.72,21.03h3.71c.51,5.11,3.63,7.77,9.33,7.77,4.18,0,7.18-1.9,7.18-5.66,0-4.14-3.63-5.11-9.03-6.29-5.32-1.18-9.88-2.7-9.88-8.4,0-4.98,4.14-7.98,10.26-7.98,7.55,0,10.68,3.84,11.44,9.41h-3.59c-.55-4.31-3.33-6.46-7.77-6.46-4.09,0-6.79,1.73-6.79,4.85,0,3.42,3.38,4.43,7.89,5.32,5.87,1.18,11.23,2.62,11.23,9.41,0,5.66-4.6,8.82-11.1,8.82-8.48,0-12.54-4.73-12.87-10.8Z"/><path class="cls-2" d="M69.05,20.35c0-6.33,4.14-11.48,10.34-11.48,6.54,0,10.04,5.06,10.04,12.28h-16.88c.25,4.43,2.66,7.81,7.05,7.81,3.17,0,5.28-1.52,6.04-4.47h3.33c-1.01,4.69-4.43,7.34-9.37,7.34-6.67,0-10.55-5.15-10.55-11.48ZM72.64,18.58h13.13c-.21-4.35-2.45-7.01-6.37-7.01s-6.25,3.04-6.75,7.01Z"/><path class="cls-2" d="M91.67,20.35c0-6.33,4.14-11.48,10.34-11.48,6.54,0,10.04,5.06,10.04,12.28h-16.88c.25,4.43,2.66,7.81,7.05,7.81,3.17,0,5.28-1.52,6.04-4.47h3.33c-1.01,4.69-4.43,7.34-9.37,7.34-6.67,0-10.55-5.15-10.55-11.48ZM95.26,18.58h13.13c-.21-4.35-2.45-7.01-6.37-7.01s-6.25,3.04-6.75,7.01Z"/><path class="cls-1" d="M111.92,1.07h3.97l4.77,19.63c.51,2.03,1.14,5.11,1.14,5.11h.08s.72-3.21,1.27-5.19l5.44-19.54h4.09l5.28,19.54c.55,2.03,1.22,5.19,1.22,5.19h.08s.72-3.25,1.18-5.11l5.02-19.63h3.84l-8.4,30.18h-3.63l-5.53-21.27c-.46-1.77-1.1-4.6-1.1-4.6h-.08s-.63,2.83-1.14,4.6l-5.91,21.27h-3.8l-7.81-30.18Z"/><path class="cls-1" d="M147.49,20.35c0-6.33,4.14-11.48,10.34-11.48,6.54,0,10.04,5.06,10.04,12.28h-16.88c.25,4.43,2.66,7.81,7.05,7.81,3.17,0,5.28-1.52,6.04-4.47h3.33c-1.01,4.69-4.43,7.34-9.37,7.34-6.67,0-10.55-5.15-10.55-11.48ZM151.08,18.58h13.13c-.21-4.35-2.45-7.01-6.37-7.01s-6.25,3.04-6.75,7.01Z"/><path class="cls-1" d="M170.07,20.35c0-6.33,4.14-11.48,10.34-11.48,6.54,0,10.04,5.06,10.04,12.28h-16.88c.25,4.43,2.66,7.81,7.05,7.81,3.17,0,5.28-1.52,6.04-4.47h3.33c-1.01,4.69-4.43,7.34-9.37,7.34-6.67,0-10.55-5.15-10.55-11.48ZM173.66,18.58h13.13c-.21-4.35-2.45-7.01-6.37-7.01s-6.25,3.04-6.75,7.01Z"/><path class="cls-1" d="M192.69,20.4c0-7.26,4.18-11.48,9.58-11.48,3.08,0,5.45,1.52,6.84,3.59h.08V1.07h3.42v30.18h-3.42v-2.66h-.08c-1.65,2.11-3.67,3.29-6.75,3.29-5.95,0-9.67-4.47-9.67-11.48ZM209.4,20.44c0-5.06-2.45-8.61-6.96-8.61-4.14,0-6.25,3.71-6.25,8.61s2.11,8.57,6.29,8.57c4.85,0,6.92-3.63,6.92-8.57Z"/><path class="cls-1" d="M28.26,8.9v-4.81H8.26c-2.3,0-4.17,1.87-4.17,4.18v5.33l5.95-3.6c3.79-2.28,8.49-2.28,12.28,0l5.13,3.1,4.91,2.96v8.04c0,4.56-3.71,8.26-8.26,8.26H.78c-.43,0-.78-.35-.78-.78v-10.57s0-.02.02-.03c0,0,.01,0,.02,0s0,0,.01,0l4.03,2.43s.02.02.02.02v4.83h20c2.3,0,4.17-1.87,4.17-4.17v-5.76l-8.06-4.83c-2.49-1.49-5.58-1.49-8.07.01l-4.42,2.67,4.44,2.68c2.49,1.5,5.57,1.5,8.05,0l.5-.3s.08-.04.12-.05c.03,0,.06.03.09.04l3.82,2.31s.02,0,.02.03,0,.02-.02.03l-2.41,1.46c-1.87,1.12-3.99,1.71-6.14,1.71s-4.28-.59-6.14-1.71l-3.12-1.88v-.02S0,16.29,0,16.29v-8.02C0,3.71,3.71,0,8.26,0h23.31c.43,0,.78.35.78.78v10.55s0,.02-.01.03c-.02,0-.02,0-.03,0l-4.03-2.43s-.02-.02-.02-.03Z"/></svg>